<svg preserveAspectRatio="xMidYMid meet" data-bbox="1.5 3.413 21 17.18" color="#ffffff" height="24" width="24" stroke-width="1.5" viewBox="0 0 24 24" xmlns="http://www.w3.org/2000/svg" data-type="ugc" role="presentation" aria-hidden="true" aria-label="">
    <g>
        <path fill="none" stroke="currentColor" stroke-miterlimit="10" d="M18.68 12A8.59 8.59 0 1 1 1.5 12a8.59 8.59 0 0 1 17.18 0z"></path>
        <path fill="none" stroke="currentColor" stroke-miterlimit="10" d="M14.86 12a4.77 4.77 0 1 1-9.54 0 4.77 4.77 0 0 1 9.54 0z"></path>
        <path fill="none" stroke="currentColor" stroke-miterlimit="10" d="M10.09 12h10.5"></path>
        <path fill="none" stroke="currentColor" stroke-miterlimit="10" d="M22.5 10.09 20.59 12"></path>
        <path fill="none" stroke="currentColor" stroke-miterlimit="10" d="M22.5 13.91 20.59 12"></path>
        <path fill="none" stroke="currentColor" stroke-miterlimit="10" d="M11.04 12a.95.95 0 1 1-1.9 0 .95.95 0 0 1 1.9 0z"></path>
    </g>
</svg>