<svg preserveAspectRatio="xMidYMid meet" data-bbox="0.5 1.48 22 21.01" color="#ffffff" height="24" width="24" stroke-width="1.5" viewBox="0 0 24 24" xmlns="http://www.w3.org/2000/svg" data-type="ugc" role="presentation" aria-hidden="true" aria-label="">
    <g>
        <path fill="none" stroke="currentColor" stroke-miterlimit="10" d="M19.15 3.87a2.39 2.39 0 1 1-4.78 0 2.39 2.39 0 0 1 4.78 0z"></path>
        <path d="M20.59 12a3.84 3.84 0 0 0-3.83-3.83A3.84 3.84 0 0 0 12.93 12" fill="none" stroke="currentColor" stroke-miterlimit="10"></path>
        <path d="m8.15 16.78 3.62.91a2 2 0 0 0 .42 0 1.7 1.7 0 0 0 1.7-1.7v-.12A1.7 1.7 0 0 0 13 14.4l-3.33-1.64A7.19 7.19 0 0 0 6.45 12a7.12 7.12 0 0 0-2.28.37L2.41 13H.5" fill="none" stroke="currentColor" stroke-miterlimit="10"></path>
        <path d="M12 17.74h1.91l6.47-1.85a1.82 1.82 0 0 1 .46-.06 1.68 1.68 0 0 1 1.66 1.67v.11a1.67 1.67 0 0 1-1 1.53L15 22a5.78 5.78 0 0 1-2.32.49 5.79 5.79 0 0 1-1.38-.17l-7-1.74H.5" fill="none" stroke="currentColor" stroke-miterlimit="10"></path>
    </g>
</svg>