<svg preserveAspectRatio="xMidYMid meet" data-bbox="1.48 1.5 21.04 22" color="#ffffff" height="24" width="24" stroke-width="1.5" viewBox="0 0 24 24" xmlns="http://www.w3.org/2000/svg" data-type="ugc" role="presentation" aria-hidden="true" aria-label="">
    <g>
        <path d="M22.52 13.93v-3.82h-2.13a8.47 8.47 0 0 0-1.11-2.66l1.51-1.52-2.7-2.7-1.51 1.51a8.63 8.63 0 0 0-2.67-1.11V1.5h-3.82v2.13a8.63 8.63 0 0 0-2.67 1.11L5.91 3.23l-2.7 2.7 1.51 1.52a8.47 8.47 0 0 0-1.11 2.66H1.48v3.82" fill="none" stroke="currentColor" stroke-miterlimit="10"></path>
        <path d="M16.78 23.5a2.88 2.88 0 0 1 2.87-2.87 2.87 2.87 0 0 1 2.87 2.87" fill="none" stroke="currentColor" stroke-miterlimit="10"></path>
        <path fill="none" stroke="currentColor" stroke-miterlimit="10" d="M21.56 16.8a1.91 1.91 0 1 1-3.82 0 1.91 1.91 0 0 1 3.82 0z"></path>
        <path d="M1.48 23.5a2.87 2.87 0 0 1 2.87-2.87 2.88 2.88 0 0 1 2.87 2.87" fill="none" stroke="currentColor" stroke-miterlimit="10"></path>
        <path fill="none" stroke="currentColor" stroke-miterlimit="10" d="M6.26 16.8a1.91 1.91 0 1 1-3.82 0 1.91 1.91 0 0 1 3.82 0z"></path>
        <path d="M15.83 12a3.83 3.83 0 0 0-7.66 0" fill="none" stroke="currentColor" stroke-miterlimit="10"></path>
        <path d="M9.13 23.5v-1.91A2.87 2.87 0 0 1 12 18.72a2.87 2.87 0 0 1 2.87 2.87v1.91" fill="none" stroke="currentColor" stroke-miterlimit="10"></path>
        <path fill="none" stroke="currentColor" stroke-miterlimit="10" d="M13.91 14.89a1.91 1.91 0 1 1-3.82 0 1.91 1.91 0 0 1 3.82 0z"></path>
    </g>
</svg>