<svg preserveAspectRatio="xMidYMid meet" data-bbox="1.48 1.5 21.04 22" color="#ffffff" height="24" width="24" stroke-width="1.5" viewBox="0 0 24 24" xmlns="http://www.w3.org/2000/svg" data-type="ugc" role="presentation" aria-hidden="true" aria-label="">
    <g>
        <path d="M9.13 23.5A2.88 2.88 0 0 1 12 20.63a2.88 2.88 0 0 1 2.87 2.87" fill="none" stroke="currentColor" stroke-miterlimit="10"></path>
        <path fill="none" stroke="currentColor" stroke-miterlimit="10" d="M13.91 16.8a1.91 1.91 0 1 1-3.82 0 1.91 1.91 0 0 1 3.82 0z"></path>
        <path d="M10.93 7.45a2.83 2.83 0 0 1 2.14 0" fill="none" stroke="currentColor" stroke-miterlimit="10"></path>
        <path d="M18.58 7.45a3 3 0 0 1 1.07-.21 2.87 2.87 0 0 1 2.87 2.87" fill="none" stroke="currentColor" stroke-miterlimit="10"></path>
        <path d="M1.48 10.11a2.86 2.86 0 0 1 2.87-2.87 3 3 0 0 1 1.07.21" fill="none" stroke="currentColor" stroke-miterlimit="10"></path>
        <path fill="none" stroke="currentColor" stroke-miterlimit="10" d="M13.91 3.41a1.91 1.91 0 1 1-3.82 0 1.91 1.91 0 0 1 3.82 0z"></path>
        <path fill="none" stroke="currentColor" stroke-miterlimit="10" d="M21.56 3.41a1.91 1.91 0 1 1-3.82 0 1.91 1.91 0 0 1 3.82 0z"></path>
        <path d="M5.3 16.8a2.88 2.88 0 0 1 2.87-2.87 2.78 2.78 0 0 1 1.08.22" fill="none" stroke="currentColor" stroke-miterlimit="10"></path>
        <path d="M14.75 14.15a2.78 2.78 0 0 1 1.08-.22 2.9 2.9 0 0 1 2.87 2.87" fill="none" stroke="currentColor" stroke-miterlimit="10"></path>
        <path fill="none" stroke="currentColor" stroke-miterlimit="10" d="M10.08 10.11a1.91 1.91 0 1 1-3.82 0 1.91 1.91 0 0 1 3.82 0z"></path>
        <path fill="none" stroke="currentColor" stroke-miterlimit="10" d="M17.74 10.11a1.91 1.91 0 1 1-3.82 0 1.91 1.91 0 0 1 3.82 0z"></path>
        <path fill="none" stroke="currentColor" stroke-miterlimit="10" d="M6.26 3.41a1.91 1.91 0 1 1-3.82 0 1.91 1.91 0 0 1 3.82 0z"></path>
    </g>
</svg>