<svg preserveAspectRatio="xMidYMid meet" data-bbox="1.5 1.5 21 21" color="#ffffff" height="24" width="24" stroke-width="1.5" viewBox="0 0 24 24" xmlns="http://www.w3.org/2000/svg" data-type="ugc" role="presentation" aria-hidden="true" aria-label="">
    <g>
        <path fill="none" stroke="currentColor" stroke-miterlimit="10" d="M22.5 12c0 5.799-4.701 10.5-10.5 10.5S1.5 17.799 1.5 12 6.201 1.5 12 1.5 22.5 6.201 22.5 12z"></path>
        <path fill="none" stroke="currentColor" stroke-miterlimit="10" d="M22.5 12c0 5.799-4.701 10.5-10.5 10.5S1.5 17.799 1.5 12 6.201 1.5 12 1.5 22.5 6.201 22.5 12z"></path>
        <path fill="none" stroke="currentColor" stroke-miterlimit="10" d="M12.95 12a.95.95 0 1 1-1.9 0 .95.95 0 0 1 1.9 0z"></path>
        <path fill="none" stroke="currentColor" stroke-miterlimit="10" d="M12 4.36v6.69"></path>
        <path fill="none" stroke="currentColor" stroke-miterlimit="10" d="m16.77 16.77-3.82-3.82"></path>
    </g>
</svg>